<?xml version="1.0" encoding="UTF-8"?>
<svg width="19px" height="18px" viewBox="0 0 19 18" version="1.1" xmlns="http://www.w3.org/2000/svg" xmlns:xlink="http://www.w3.org/1999/xlink">
    <!-- Generator: Sketch 59.1 (86144) - https://sketch.com -->
    <title>编组</title>
    <desc>Created with Sketch.</desc>
    <g id="侧边悬浮框" stroke="none" stroke-width="1" fill="none" fill-rule="evenodd">
        <g id="指标说明-侧边悬浮" transform="translate(-1390.000000, -345.000000)" fill="#919191" fill-rule="nonzero">
            <g id="编组" transform="translate(1369.000000, 272.000000)">
                <g transform="translate(21.500000, 73.000000)" id="形状">
                    <path d="M5.96857099,2.57142857 L3.18596229,2.57142857 C2.84656469,2.57142857 2.57142857,2.85485245 2.57142857,3.20447352 L2.57142857,5.93226419 C2.57142857,6.28188526 2.84656469,6.56530914 3.18596229,6.56530914 C3.5253599,6.56530914 3.80049602,6.28188526 3.80049602,5.93226419 L3.80049602,3.83751846 L5.96857099,3.83751846 C6.30796859,3.83751846 6.58310471,3.55409459 6.58310471,3.20447352 C6.58310471,2.85485245 6.30796859,2.57142857 5.96857099,2.57142857 Z M13.9568948,2.57142857 L11.1749007,2.57142857 C10.8355031,2.57142857 10.560367,2.85485245 10.560367,3.20447352 C10.560367,3.55409459 10.8355031,3.83751846 11.1749007,3.83751846 L13.3423611,3.83751846 L13.3423611,5.93226419 C13.3423611,6.28188526 13.6174972,6.56530914 13.9568948,6.56530914 C14.2962925,6.56530914 14.5714286,6.28188526 14.5714286,5.93226419 L14.5714286,3.20447352 C14.5714286,2.85485245 14.2962925,2.57142857 13.9568948,2.57142857 Z M5.96857099,14.1624815 L3.80049602,14.1624815 L3.80049602,12.0671028 C3.80049602,11.7174817 3.5253599,11.4340578 3.18596229,11.4340578 C2.84656469,11.4340578 2.57142857,11.7174817 2.57142857,12.0671028 L2.57142857,14.7955265 C2.57142857,15.1451476 2.84656469,15.4285714 3.18596229,15.4285714 L5.96857099,15.4285714 C6.30796859,15.4285714 6.58310471,15.1451476 6.58310471,14.7955265 C6.58310471,14.4459054 6.30796859,14.1624815 5.96857099,14.1624815 L5.96857099,14.1624815 Z M13.9568948,11.4340578 C13.6174972,11.4340578 13.3423611,11.7174817 13.3423611,12.0671028 L13.3423611,14.1624815 L11.1749007,14.1624815 C10.8355031,14.1624815 10.560367,14.4459054 10.560367,14.7955265 C10.560367,15.1451476 10.8355031,15.4285714 11.1749007,15.4285714 L13.9568948,15.4285714 C14.2962925,15.4285714 14.5714286,15.1451476 14.5714286,14.7955265 L14.5714286,12.0671028 C14.5714286,11.7174817 14.2962925,11.4340578 13.9568948,11.4340578 Z"></path>
                    <path d="M16.7586207,0 L1.24137931,0 C0.556758621,0 0,0.556758621 0,1.24137931 L0,16.7586207 C0,17.4432414 0.556758621,18 1.24137931,18 L16.7586207,18 C17.4432414,18 18,17.4432414 18,16.7586207 L18,1.24137931 C18,0.556758621 17.4432414,0 16.7586207,0 Z M1.24137931,16.7586207 L1.24137931,1.24137931 L16.7586207,1.24137931 L16.7598621,16.7586207 L1.24137931,16.7586207 Z"></path>
                </g>
            </g>
        </g>
    </g>
</svg>