<?xml version="1.0" encoding="UTF-8"?>
<svg width="19px" height="19px" viewBox="0 0 19 19" version="1.1" xmlns="http://www.w3.org/2000/svg" xmlns:xlink="http://www.w3.org/1999/xlink">
    <!-- Generator: Sketch 59.1 (86144) - https://sketch.com -->
    <title>编组</title>
    <desc>Created with Sketch.</desc>
    <g id="侧边悬浮框" stroke="none" stroke-width="1" fill="none" fill-rule="evenodd">
        <g id="指标说明-侧边悬浮" transform="translate(-1391.000000, -404.000000)" fill="#919191" fill-rule="nonzero">
            <g id="编组" transform="translate(1369.000000, 272.000000)">
                <g transform="translate(22.000000, 132.000000)" id="路径">
                    <path d="M14.8787983,19 L2.12499859,19 C0.952060303,19 0,18.0177833 0,16.8076923 L0,3.1923077 C0,1.98221672 0.952060303,1 2.12499859,1 L12.0416586,1 C12.4339075,1 12.7499915,1.32609594 12.7499915,1.73076924 C12.7499915,2.13544254 12.4339075,2.46153848 12.0416586,2.46153848 L2.12499859,2.46153846 C1.73655799,2.46153846 1.41666572,2.79156327 1.41666572,3.1923077 L1.41666572,16.8076923 C1.41666572,17.2123656 1.73655797,17.5384615 2.12499859,17.5384615 L14.8749901,17.5384615 C15.2672389,17.5384615 15.5833229,17.2123656 15.5833229,16.8076923 L15.5833229,6.11145575 C15.5833229,5.70678248 15.8994069,5.38068651 16.2916558,5.38068651 C16.6839046,5.38068651 17.0000336,5.70678245 17.0000336,6.11145575 L17.0000336,16.8037634 C17.0037969,18.0138544 16.0479283,19 14.8787983,19 Z"></path>
                    <path d="M10.7565834,9 C10.5621202,9 10.3717083,8.92705167 10.2218096,8.77710233 C9.92606347,8.48125634 9.92606347,8.0070922 10.2218096,7.71124621 L17.7126941,0.221884497 C18.0084402,-0.073961499 18.4824443,-0.073961499 18.7781904,0.221884497 C19.0739365,0.517730493 19.0739365,0.991894628 18.7781904,1.28774062 L11.2873059,8.78115501 C11.1414585,8.92705167 10.9469953,9 10.7565834,9 Z"></path>
                    <path d="M8.24999999,8.5 L3.75000001,8.5 C3.33467744,8.5 3,8.16532259 3,7.75 C3,7.33467741 3.33467741,7 3.75000001,7 L8.24999999,7 C8.66532256,7 9,7.33467743 9,7.75000002 C9,8.16532259 8.66532259,8.5 8.24999999,8.5 Z"></path>
                    <path d="M12.2895545,13.5 L3.71428572,13.5 C3.31874042,13.5 3,13.1653226 3,12.75 C3,12.3346774 3.31874039,12 3.71428572,12 L12.2857143,12 C12.6812596,12 13,12.3346774 13,12.75 C13,13.1653226 12.6812596,13.5 12.2895545,13.5 Z"></path>
                </g>
            </g>
        </g>
    </g>
</svg>