<svg viewBox="0 0 1024 1024" version="1.1" xmlns="http://www.w3.org/2000/svg" width="1em" height="1em" fill="currentColor"><path d="M42.666667 149.482667A106.752 106.752 0 0 1 149.482667 42.666667h725.034666A106.752 106.752 0 0 1 981.333333 149.482667v725.034666A106.752 106.752 0 0 1 874.517333 981.333333H149.482667A106.752 106.752 0 0 1 42.666667 874.517333V149.482667z m85.333333 0v725.034666C128 886.421333 137.578667 896 149.482667 896h725.034666c11.904 0 21.482667-9.578667 21.482667-21.482667V149.482667C896 137.578667 886.421333 128 874.517333 128H149.482667C137.578667 128 128 137.578667 128 149.482667zM256 640a42.666667 42.666667 0 1 1 85.333333 0v85.333333a42.666667 42.666667 0 1 1-85.333333 0v-85.333333z m213.333333-170.666667a42.666667 42.666667 0 1 1 85.333334 0v256a42.666667 42.666667 0 1 1-85.333334 0V469.333333z m213.333334-170.666666a42.666667 42.666667 0 1 1 85.333333 0v426.666666a42.666667 42.666667 0 1 1-85.333333 0V298.666667z" fill=""></path></svg>