<svg class="icon" viewBox="0 0 1024 1024" version="1.1" xmlns="http://www.w3.org/2000/svg" width="1em" height="1em">
    <path d="M613.522286 110.884571C613.522286 69.851429 648.045714 36.571429 690.761143 36.571429 733.403429 36.571429 768 69.851429 768 110.884571c0 40.96-34.596571 74.24-77.238857 74.24-42.642286 0-77.238857-33.206857-77.238857-74.24z m-357.522286 0C256 69.851429 290.596571 36.571429 333.238857 36.571429c42.642286 0 77.238857 33.28 77.238857 74.313142 0 40.96-34.596571 74.24-77.238857 74.24C290.596571 185.124571 256 151.917714 256 110.884571zM613.522286 512c0-40.96 34.596571-74.313143 77.238857-74.313143C733.403429 437.686857 768 471.04 768 512c0 40.96-34.596571 74.313143-77.238857 74.313143-42.642286 0-77.238857-33.28-77.238857-74.313143zM256 512c0-40.96 34.596571-74.313143 77.238857-74.313143 42.642286 0 77.238857 33.28 77.238857 74.313143 0 40.96-34.596571 74.313143-77.238857 74.313143C290.596571 586.313143 256 552.96 256 512z m357.522286 401.115429c0-40.96 34.596571-74.24 77.238857-74.24 42.642286 0 77.238857 33.206857 77.238857 74.24 0 41.033143-34.596571 74.313143-77.238857 74.313142-42.642286 0-77.238857-33.28-77.238857-74.313142z m-357.522286 0c0-40.96 34.596571-74.24 77.238857-74.24 42.642286 0 77.238857 33.206857 77.238857 74.24 0 41.033143-34.596571 74.313143-77.238857 74.313142C290.596571 987.428571 256 954.148571 256 913.115429z"
          fill="currentColor" opacity=".651"></path>
</svg>
