<?xml version="1.0" encoding="UTF-8"?>
<svg width="17px" height="18px" viewBox="0 0 17 18" version="1.1" xmlns="http://www.w3.org/2000/svg" xmlns:xlink="http://www.w3.org/1999/xlink">
    <!-- Generator: Sketch 59.1 (86144) - https://sketch.com -->
    <title>编组</title>
    <desc>Created with Sketch.</desc>
    <g id="侧边悬浮框" stroke="none" stroke-width="1" fill="none" fill-rule="evenodd">
        <g id="指标说明-侧边悬浮" transform="translate(-1391.000000, -285.000000)" fill="#FFFFFF" fill-rule="nonzero">
            <g id="编组" transform="translate(1369.000000, 272.000000)">
                <g id="矩形" transform="translate(1.000000, 0.000000)">
                    <g id="编组" transform="translate(21.000000, 13.000000)">
                        <path d="M6.57486388,0.818181818 L3.26724138,0.818181818 C2.94509982,0.818181818 2.68421053,0.635125575 2.68421053,0.409090909 C2.68421053,0.183056243 2.94509982,0 3.26724138,0 L6.57486388,0 C6.89700544,0 7.15789474,0.183056243 7.15789474,0.409090909 C7.15789474,0.635125575 6.89700544,0.818181818 6.57486388,0.818181818 Z" id="路径"></path>
                        <path d="M0.572415213,15.5454545 C0.256139103,15.5454545 0,15.3204417 0,15.0425997 L0,2.00750615 C0,0.90005149 1.02455641,1.42108547e-14 2.28520626,1.42108547e-14 L3.77304035,1.42108547e-14 C4.08931646,1.42108547e-14 4.34545557,0.225012873 4.34545557,0.502854854 C4.34545557,0.780696836 4.08931646,1.00570971 3.77304035,1.00570971 L2.28520626,1.00570971 C1.65710863,1.00570971 1.14705772,1.45377882 1.14705772,2.00554952 L1.14705772,15.0406431 C1.14483043,15.3204417 0.888691323,15.5454545 0.572415213,15.5454545 Z M8.89136782,5.51575033 C8.75104814,5.51575033 8.61518305,5.49031409 8.49936363,5.44726815 C8.1986786,5.3337834 8.01158569,5.09703072 8.01158569,4.82897191 L8.01158569,0.504811488 C8.01158569,0.226969506 8.26772479,0.00195663367 8.5840009,0.00195663367 C8.90027701,0.00195663367 9.15641611,0.226969506 9.15641611,0.504811488 L9.15641611,4.20284913 L9.77337726,3.68238458 C10.0874261,3.41823903 10.5774313,3.41823903 10.8892528,3.68238458 L11.3814854,4.09914755 L11.3814854,0.502854854 C11.3814854,0.225012873 11.6376245,0 11.9539006,0 C12.2701767,0 12.5263158,0.225012873 12.5263158,0.502854854 L12.5263158,4.7996224 C12.5263158,5.08333429 12.3347683,5.33769666 12.0363105,5.44922478 C11.7400801,5.5607529 11.3970764,5.50596716 11.1632103,5.30834716 L10.3279741,4.60395904 L9.49273789,5.30834716 C9.32346335,5.45705132 9.10296099,5.51575033 8.89136782,5.51575033 L8.89136782,5.51575033 Z" id="形状"></path>
                        <path d="M15.54613,18 L2.24084425,18 C1.00466701,18 0,17.0036701 0,15.777751 L0,15.2839179 C0,14.9763552 0.251166753,14.7272727 0.561303092,14.7272727 C0.87143943,14.7272727 1.12260618,14.9763552 1.12260618,15.2839179 L1.12260618,15.777751 C1.12260618,16.3885446 1.62275563,16.8845436 2.23866019,16.8845436 L15.5439459,16.8845436 C15.8540823,16.8845436 16.1052632,17.1336261 16.1052632,17.4411889 C16.1074331,17.7509175 15.8562663,18 15.54613,18 Z" id="路径"></path>
                        <path d="M0.578263031,16.3636364 L0.558025371,16.3636364 C0.238720065,16.3535491 -0.0108777445,16.113471 0.00036540005,15.8269914 C0.0228516892,15.258067 0.142029022,14.8485222 0.375886429,14.5438854 C0.686197219,14.1383755 1.17190106,13.9325943 1.82175482,13.9325943 L15.6508227,13.9325943 C15.7227788,13.8781229 15.7947349,13.8095291 15.8442047,13.7590926 L15.8442047,1.37590926 C15.8037294,1.27301868 15.5811152,1.07328992 15.4664351,1.0369756 L7.08804374,1.0369756 C6.76873844,1.0369756 6.51014611,0.80496744 6.51014611,0.5184878 C6.51014611,0.23200816 6.76873844,0 7.08804374,0 L15.4889214,0 C15.9341499,0 16.3141682,0.280427254 16.5008044,0.447876621 C16.6874406,0.615325988 17,0.95627711 17,1.35573464 L17,13.89628 C17,14.1141659 16.860585,14.2917026 16.7234186,14.4349424 C16.6199817,14.5438854 16.4918099,14.6568633 16.3726325,14.7456316 C16.3501462,14.7637888 16.3254113,14.7799285 16.3006764,14.7960682 C16.1792504,14.8787841 16.0106033,14.9736049 15.7992322,14.9736049 L1.81950619,14.9736049 C1.48221186,14.9736049 1.1898901,14.9736049 1.15616066,15.8653232 C1.14491752,16.143733 0.888573822,16.3636364 0.578263031,16.3636364 Z" id="路径"></path>
                        <path d="M3.24662757,14.928204 C2.93587574,14.928204 2.68421053,14.6967121 2.68421053,14.4108701 L2.68421053,0.51733393 C2.68421053,0.231491836 2.93587574,0 3.24662757,0 C3.55737941,0 3.80904462,0.231491836 3.80904462,0.51733393 L3.80904462,14.4088571 C3.80904462,14.6967121 3.55737941,14.928204 3.24662757,14.928204 Z M15.5125714,18 L15.4775571,18 C15.3331231,17.9939611 14.8210391,17.9537016 14.3352158,17.6598076 C13.9084792,17.4041601 13.4029603,16.8948781 13.4029603,15.9226124 C13.4029603,14.6685305 14.1842167,13.8895102 15.4403544,13.8895102 C15.7511062,13.8895102 16.0027715,14.121002 16.0027715,14.4068441 C16.0027715,14.6926862 15.7511062,14.924178 15.4403544,14.924178 C15.1668053,14.924178 14.5277944,14.924178 14.5277944,15.9226124 C14.5277944,16.3453366 14.6722284,16.6331917 14.9676615,16.8042943 C15.1996312,16.9371505 15.4512964,16.9613062 15.5147598,16.9653321 C15.5453973,16.9633192 15.5782232,16.9653321 15.6110491,16.9693581 C15.9108589,17.0035786 16.1275099,17.2511742 16.1034375,17.5269515 C16.083742,17.7181839 15.9108589,18 15.5125714,18 L15.5125714,18 Z M15.4987749,16.9833192 C15.466422,16.9933192 15.4311279,17.0133192 15.3987749,17.0433192 C15.4311279,17.0133192 15.4634808,16.9933192 15.4987749,16.9833192 Z" id="形状"></path>
                    </g>
                </g>
            </g>
        </g>
    </g>
</svg>