<?xml version="1.0" standalone="no"?><!DOCTYPE svg PUBLIC "-//W3C//DTD SVG 1.1//EN"
        "http://www.w3.org/Graphics/SVG/1.1/DTD/svg11.dtd">
<svg class="icon" viewBox="0 0 1024 1024" version="1.1" xmlns="http://www.w3.org/2000/svg"
     xmlns:xlink="http://www.w3.org/1999/xlink" width="1em" height="1em">
    <defs>
        <style type="text/css"></style>
    </defs>
    <path d="M983.259429 433.590857h-2.852572c-25.892571 0-33.499429 21.211429-33.499428 47.177143v462.994286H77.238857V486.4c0-25.892571-14.409143-47.104-40.228571-47.104h3.876571c-26.112 0-40.521143 21.211429-40.521143 47.104v489.764571c0 26.112 21.138286 44.909714 47.104 44.909715h930.230857a46.518857 46.518857 0 0 0 45.860572-46.445715V480.914286c0-25.965714-14.336-47.323429-40.301714-47.323429zM310.418286 299.446857l164.278857-164.571428v526.921142c0 26.697143 8.411429 48.566857 34.962286 48.566858 26.697143 0 41.691429-22.016 41.691428-48.566858v-524.434285L727.04 306.468571c18.797714 18.944 36.132571 18.944 55.222857 0 18.870857-18.870857 12.068571-49.810286-6.802286-68.973714L546.304 14.774857a48.054857 48.054857 0 0 0-38.985143-13.897143 48.054857 48.054857 0 0 0-29.696 13.897143L248.539429 244.370286a49.005714 49.005714 0 0 0 0 68.827428c18.870857 19.017143 43.008 5.412571 61.878857-13.750857z"
          fill="currentColor"></path>
</svg>
