<svg class="icon" viewBox="0 0 1024 1024" version="1.1" xmlns="http://www.w3.org/2000/svg" width="200"
     height="200">
    <path d="M804.139139 1024h-659.892477a109.957774 109.957774 0 0 1-109.921316-109.921316v-732.808773a109.957774 109.957774 0 0 1 109.921316-109.921316h513.002599a36.640439 36.640439 0 0 1 0 73.280878H144.356037A36.822729 36.822729 0 0 0 107.715598 181.269911v732.808773a36.713355 36.713355 0 0 0 36.640439 36.640439h659.564353a36.458148 36.458148 0 0 0 36.640439-36.640439V327.576459a36.640439 36.640439 0 1 1 73.280877 0v586.283476a109.957774 109.957774 0 0 1-109.702567 110.140065z"
          fill="currentColor"></path>
    <path d="M588.817318 437.534233a36.749813 36.749813 0 0 1-25.99466-62.635098L927.076014 10.82807a36.640439 36.640439 0 0 1 51.807028 51.807028l-364.253356 364.253356a36.458148 36.458148 0 0 1-25.812368 10.645779zM437.516004 437.497775h-219.842632a36.640439 36.640439 0 0 1 0-73.280878h219.842632a36.640439 36.640439 0 1 1 0 73.280878zM657.577385 657.376865H217.636914a36.640439 36.640439 0 0 1 0-73.280878h439.721722a36.640439 36.640439 0 0 1 0.18229 73.280878z"
          fill="currentColor" ></path>
</svg>
