<?xml version="1.0" standalone="no"?><!DOCTYPE svg PUBLIC "-//W3C//DTD SVG 1.1//EN" "http://www.w3.org/Graphics/SVG/1.1/DTD/svg11.dtd"><svg t="1614905751900" class="icon" viewBox="0 0 1024 1024" version="1.1" xmlns="http://www.w3.org/2000/svg" p-id="1131" xmlns:xlink="http://www.w3.org/1999/xlink" width="200" height="200"><defs><style type="text/css"></style></defs><path d="M909.54239082 961.88773467H780.3874206a30.08640849 30.08640849 0 1 1 0-60.18403975h99.16956036a19.98653291 19.98653291 0 0 0 19.99775479-19.99775479v-99.15833847a30.08640849 30.08640849 0 0 1 60.18403886 0v129.1549711a50.21882842 50.21882842 0 0 1-50.18516191 50.18516191zM929.49525722 275.90415313a30.120075 30.120075 0 0 1-30.09763037-30.09763125V146.63696152a19.98653291 19.98653291 0 0 0-19.9528664-19.9865329H780.24153359A30.08640849 30.08640849 0 0 1 780.24153359 66.48883349h129.1998586a50.05049677 50.05049677 0 0 1 50.08416328 50.08416329v129.16619296A29.99663174 29.99663174 0 0 1 929.49525722 275.90415313zM722.2009124 253.80786817H301.63085088a50.0392749 50.0392749 0 0 0-50.08416241 50.08416327v420.57006065A50.05049677 50.05049677 0 0 0 301.63085088 774.60236563h420.67106016A50.05049677 50.05049677 0 0 0 772.38607432 724.46209209V303.89203145a50.19638378 50.19638378 0 0 0-50.18516192-50.08416328z m-9.99887783 440.65759218a19.98653291 19.98653291 0 0 1-19.99775391 19.99775478H331.71725937a19.98653291 19.98653291 0 0 1-19.9977539-19.99775477V333.97843994a19.98653291 19.98653291 0 0 1 19.99775391-19.99775478h360.48702129a19.98653291 19.98653291 0 0 1 19.99775391 19.99775478zM243.54534219 126.65042862H144.37578096a19.98653291 19.98653291 0 0 0-19.98653203 19.9865329v99.16956035a30.08640849 30.08640849 0 1 1-60.18403975 0V116.65155166A50.05049677 50.05049677 0 0 1 114.28937247 66.56738838h129.16619296a30.04152012 30.04152012 0 0 1 0.10099863 60.08304024zM94.39261631 752.55096992a30.120075 30.120075 0 0 1 30.08640937 30.09763037v99.16956123a19.98653291 19.98653291 0 0 0 19.99775391 19.99775479h99.16956123a30.08640849 30.08640849 0 0 1 0 60.18403887H114.39037109A50.05049677 50.05049677 0 0 1 64.27254219 911.90457002V782.64860029a30.120075 30.120075 0 0 1 30.09763037-30.09763037z" fill="currentColor" p-id="1132"></path></svg>
