<svg xmlns="http://www.w3.org/2000/svg" xmlns:xlink="http://www.w3.org/1999/xlink" viewBox="0 0 1024 1024" version="1.1"
     width="1em" height="1em">
    <path d="M550.4 60.928l355.7376 192.2048c25.344 13.7216 41.0624 39.7312 41.0624 68.096v381.5936c0 28.2624-15.7184 54.3232-41.1136 67.9936l-355.6352 192.3072a81.0496 81.0496 0 0 1-76.8512 0l-355.6864-192.256a77.4656 77.4656 0 0 1-41.1136-68.096V321.28c0-28.3136 15.7696-54.3232 41.1136-67.9936L473.4976 60.928a81.0496 81.0496 0 0 1 76.9536 0zM230.0928 359.68a37.9904 37.9904 0 0 0-3.4304 29.5424 38.912 38.912 0 0 0 18.944 23.2448l226.6624 122.4704v244.224a39.3728 39.3728 0 0 0 39.7312 37.888c21.504 0 39.168-16.7936 39.7312-37.888v-244.224l226.6112-122.5728a38.4 38.4 0 0 0 14.2848-52.0192 40.192 40.192 0 0 0-52.6848-15.872L512 467.5584 284.1088 344.4224a40.192 40.192 0 0 0-54.016 15.2576z"
          fill="currentColor"/>
</svg>