<svg xmlns="http://www.w3.org/2000/svg" xmlns:xlink="http://www.w3.org/1999/xlink" viewBox="0 0 1025 1024"
     version="1.1" width="1em" height="1em">
    <path d="M355.299924 125.899973C372.89992 52.299989 438.599906 0.3 514.39989 0c76.499984 0 140.69997 52.899989 158.799965 124.599973C855.099816 192.399959 975.499791 366.299921 974.899791 560.39988c0 29.499994-2.799999 58.499987-8.099999 86.499981 35.599992 30.399993 58.199987 75.799984 58.199988 126.499973 0 91.49998-73.299984 165.599964-163.899965 165.599964-22.399995 0-43.799991-4.499999-63.299986-12.799997-80.199983 63.399986-179.499961 97.899979-281.79994 97.799979-104.199978 0-200.499957-35.199992-277.49994-94.39998-22.299995 11.499998-47.69999 18.099996-74.599984 18.099996C73.399984 947.699796 0 873.499812 0 782.099832c0-54.199988 25.899994-102.399978 65.699986-132.499972-5.699999-29.399994-8.499998-59.299987-8.499998-89.19998-0.6-192.599959 118.099975-365.599921 298.099936-434.499907z m7.799998 103.599978C235.29995 289.999938 153.899967 418.79991 154.299967 560.09988c0 19.199996 1.5 38.099992 4.299999 56.499988l5.199999-0.1c90.499981 0 163.899965 74.099984 163.899965 165.599964 0 26.799994-6.399999 53.299989-18.899996 77.099983 60.299987 42.499991 132.199972 65.299986 205.899956 65.199986 73.799984 0.1 145.799969-22.699995 205.999955-65.299986-15.499997-25.899994-23.699995-55.599988-23.599995-85.699981 0-91.39998 73.299984-165.599964 163.799965-165.599965 3.799999 0 7.399998 0.1 11.099998 0.4 2.1-15.999997 3.099999-31.999993 3.099999-48.099989 0-146.799968-85.799982-273.199941-209.599955-330.899929-25.099995 61.499987-84.899982 101.799978-151.399967 101.999978-127.399973-0.4-150.999968-101.699978-150.999968-101.699978z"
          fill="currentColor"/>
</svg>